<?xml version="1.0" encoding="UTF-8"?>
<svg width="100px" height="100px" viewBox="0 0 100 100" version="1.1" xmlns="http://www.w3.org/2000/svg" xmlns:xlink="http://www.w3.org/1999/xlink">
    <!-- Generator: Sketch 48.1 (47250) - http://www.bohemiancoding.com/sketch -->
    <title>outdoors</title>
    <desc>Created with Sketch.</desc>
    <defs>
        <circle id="path-1" cx="50" cy="50" r="46"></circle>
        <filter x="-7.6%" y="-5.4%" width="115.2%" height="115.2%" filterUnits="objectBoundingBox" id="filter-2">
            <feOffset dx="0" dy="2" in="SourceAlpha" result="shadowOffsetOuter1"></feOffset>
            <feGaussianBlur stdDeviation="2" in="shadowOffsetOuter1" result="shadowBlurOuter1"></feGaussianBlur>
            <feComposite in="shadowBlurOuter1" in2="SourceAlpha" operator="out" result="shadowBlurOuter1"></feComposite>
            <feColorMatrix values="0 0 0 0 0   0 0 0 0 0   0 0 0 0 0  0 0 0 0.2 0" type="matrix" in="shadowBlurOuter1"></feColorMatrix>
        </filter>
        <path d="M4.89990096,14.4357151 L4.74122243,14.4357151 C3.91279531,14.4357151 3.24122243,13.7641422 3.24122243,12.9357151 C3.24122243,12.6670632 3.31337359,12.4033416 3.45013682,12.1721066 L9.70880833,1.59013855 C10.1305377,0.877091653 11.0504555,0.640932105 11.7635024,1.06266143 C11.9809404,1.19126444 12.1623766,1.37270057 12.2909796,1.59013855 L18.5496511,12.1721066 C18.9713804,12.8851535 18.7352209,13.8050714 18.022174,14.2268007 C17.7909389,14.3635639 17.5272173,14.4357151 17.2585655,14.4357151 L17.0998869,14.4357151 L20.1833126,21.6705831 C20.6163783,22.6867169 20.1437082,23.8615252 19.1275744,24.2945908 C18.8796542,24.4002519 18.6129368,24.4547179 18.3434396,24.4547179 L17.8722357,24.4547179 L20.9580865,33.3441182 C21.32032,34.3876031 20.7680566,35.527163 19.7245718,35.8893965 C19.5136506,35.9626153 19.2919582,36 19.06869,36 L2.93071298,36 C1.82614348,36 0.930712977,35.1045695 0.930712977,34 C0.930712977,33.7767318 0.968097698,33.5550394 1.04131648,33.3441182 L4.12716726,24.4547179 L3.65634824,24.4547179 C2.55177874,24.4547179 1.65634824,23.5592874 1.65634824,22.4547179 C1.65634824,22.1852207 1.71081421,21.9185033 1.81647525,21.6705831 L4.89990096,14.4357151 Z" id="path-3"></path>
        <filter x="-32.3%" y="-15.6%" width="164.6%" height="137.0%" filterUnits="objectBoundingBox" id="filter-5">
            <feOffset dx="0" dy="1" in="SourceAlpha" result="shadowOffsetOuter1"></feOffset>
            <feGaussianBlur stdDeviation="2" in="shadowOffsetOuter1" result="shadowBlurOuter1"></feGaussianBlur>
            <feColorMatrix values="0 0 0 0 0   0 0 0 0 0   0 0 0 0 0  0 0 0 0.2 0" type="matrix" in="shadowBlurOuter1"></feColorMatrix>
        </filter>
        <path d="M4.89990096,14.4357151 L4.74122243,14.4357151 C3.91279531,14.4357151 3.24122243,13.7641422 3.24122243,12.9357151 C3.24122243,12.6670632 3.31337359,12.4033416 3.45013682,12.1721066 L9.70880833,1.59013855 C10.1305377,0.877091653 11.0504555,0.640932105 11.7635024,1.06266143 C11.9809404,1.19126444 12.1623766,1.37270057 12.2909796,1.59013855 L18.5496511,12.1721066 C18.9713804,12.8851535 18.7352209,13.8050714 18.022174,14.2268007 C17.7909389,14.3635639 17.5272173,14.4357151 17.2585655,14.4357151 L17.0998869,14.4357151 L20.1833126,21.6705831 C20.6163783,22.6867169 20.1437082,23.8615252 19.1275744,24.2945908 C18.8796542,24.4002519 18.6129368,24.4547179 18.3434396,24.4547179 L17.8722357,24.4547179 L20.9580865,33.3441182 C21.32032,34.3876031 20.7680566,35.527163 19.7245718,35.8893965 C19.5136506,35.9626153 19.2919582,36 19.06869,36 L2.93071298,36 C1.82614348,36 0.930712977,35.1045695 0.930712977,34 C0.930712977,33.7767318 0.968097698,33.5550394 1.04131648,33.3441182 L4.12716726,24.4547179 L3.65634824,24.4547179 C2.55177874,24.4547179 1.65634824,23.5592874 1.65634824,22.4547179 C1.65634824,22.1852207 1.71081421,21.9185033 1.81647525,21.6705831 L4.89990096,14.4357151 Z" id="path-6"></path>
        <filter x="-32.3%" y="-15.6%" width="164.6%" height="137.0%" filterUnits="objectBoundingBox" id="filter-8">
            <feOffset dx="0" dy="1" in="SourceAlpha" result="shadowOffsetOuter1"></feOffset>
            <feGaussianBlur stdDeviation="2" in="shadowOffsetOuter1" result="shadowBlurOuter1"></feGaussianBlur>
            <feColorMatrix values="0 0 0 0 0   0 0 0 0 0   0 0 0 0 0  0 0 0 0.2 0" type="matrix" in="shadowBlurOuter1"></feColorMatrix>
        </filter>
        <path d="M5.76470588,20 L4.58476952,20 C3.75634239,20 3.08476952,19.3284271 3.08476952,18.5 C3.08476952,18.2389596 3.15289249,17.9824381 3.2824048,17.7557916 L12.6976353,1.27913825 C13.1086502,0.559862078 14.0249322,0.309966988 14.7442084,0.720981942 C14.9767553,0.853865894 15.1694808,1.04659133 15.3023647,1.27913825 L24.7175952,17.7557916 C25.1286101,18.4750678 24.8787151,19.3913498 24.1594389,19.8023647 C23.9327923,19.931877 23.6762709,20 23.4152305,20 L22.2352941,20 L26.8629119,31.2385004 C27.2834765,32.2598716 26.7964266,33.4287916 25.7750553,33.8493562 C25.5334965,33.9488216 25.2747913,34 25.0135557,34 L23.2780034,34 L27.8046723,47.4967759 C28.1559047,48.5440149 27.5916798,49.6777 26.5444407,50.0289324 C26.3394576,50.0976814 26.1246831,50.1327383 25.9084783,50.1327383 L2.09100205,50.1327383 C0.986432549,50.1327383 0.0910020483,49.2373078 0.0910020483,48.1327383 C0.0910020483,47.9165335 0.126058949,47.7017591 0.194808024,47.4967759 L4.72147693,34 L2.98644427,34 C1.88187477,34 0.986444272,33.1045695 0.986444272,32 C0.986444272,31.7387644 1.03762267,31.4800592 1.13708807,31.2385004 L5.76470588,20 Z" id="path-9"></path>
        <filter x="-23.4%" y="-11.1%" width="146.7%" height="126.2%" filterUnits="objectBoundingBox" id="filter-11">
            <feOffset dx="0" dy="1" in="SourceAlpha" result="shadowOffsetOuter1"></feOffset>
            <feGaussianBlur stdDeviation="2" in="shadowOffsetOuter1" result="shadowBlurOuter1"></feGaussianBlur>
            <feColorMatrix values="0 0 0 0 0   0 0 0 0 0   0 0 0 0 0  0 0 0 0.2 0" type="matrix" in="shadowBlurOuter1"></feColorMatrix>
        </filter>
    </defs>
    <g id="Page-1" stroke="none" stroke-width="1" fill="none" fill-rule="evenodd">
        <g id="outdoors">
            <g id="Oval">
                <use fill="black" fill-opacity="1" filter="url(#filter-2)" xlink:href="#path-1"></use>
                <use fill="#FFFFFF" fill-rule="evenodd" xlink:href="#path-1"></use>
                <circle stroke="#726DA8" stroke-width="4" cx="50" cy="50" r="44"></circle>
            </g>
            <g id="Background-trees" transform="translate(22.000000, 33.000000)">
                <g id="Tree-Copy" transform="translate(34.000000, 0.000000)">
                    <rect id="Rectangle-2" fill="#726DA8" x="9" y="33" width="3" height="10" rx="1.5"></rect>
                    <mask id="mask-4" fill="white">
                        <use xlink:href="#path-3"></use>
                    </mask>
                    <g id="Mask">
                        <use fill="black" fill-opacity="1" filter="url(#filter-5)" xlink:href="#path-3"></use>
                        <use fill="#726DA8" fill-rule="evenodd" xlink:href="#path-3"></use>
                    </g>
                    <rect id="Rectangle" fill-opacity="0.3" fill="#FFFFFF" style="mix-blend-mode: overlay;" mask="url(#mask-4)" x="11" y="-1" width="14" height="40"></rect>
                </g>
                <g id="Tree-Copy-2">
                    <rect id="Rectangle-2" fill="#726DA8" x="9" y="33" width="3" height="10" rx="1.5"></rect>
                    <mask id="mask-7" fill="white">
                        <use xlink:href="#path-6"></use>
                    </mask>
                    <g id="Mask">
                        <use fill="black" fill-opacity="1" filter="url(#filter-8)" xlink:href="#path-6"></use>
                        <use fill="#726DA8" fill-rule="evenodd" xlink:href="#path-6"></use>
                    </g>
                    <rect id="Rectangle" fill-opacity="0.3" fill="#FFFFFF" style="mix-blend-mode: overlay;" mask="url(#mask-7)" x="11" y="-1" width="14" height="40"></rect>
                </g>
            </g>
            <g id="Tree" transform="translate(36.000000, 18.000000)">
                <rect id="Rectangle-2" fill="#726DA8" x="11" y="46" width="6" height="13" rx="1.5"></rect>
                <mask id="mask-10" fill="white">
                    <use xlink:href="#path-9"></use>
                </mask>
                <g id="Mask">
                    <use fill="black" fill-opacity="1" filter="url(#filter-11)" xlink:href="#path-9"></use>
                    <use fill="#726DA8" fill-rule="evenodd" xlink:href="#path-9"></use>
                </g>
                <rect id="Rectangle" fill-opacity="0.3" fill="#FFFFFF" style="mix-blend-mode: overlay;" mask="url(#mask-10)" x="14" y="-3" width="21" height="56"></rect>
            </g>
        </g>
    </g>
</svg>