<?xml version="1.0" encoding="UTF-8"?>
<svg width="100px" height="100px" viewBox="0 0 100 100" version="1.1" xmlns="http://www.w3.org/2000/svg" xmlns:xlink="http://www.w3.org/1999/xlink">
    <!-- Generator: Sketch 47.1 (45422) - http://www.bohemiancoding.com/sketch -->
    <title>rhcBrand</title>
    <desc>Created with Sketch.</desc>
    <defs>
        <circle id="path-1" cx="50" cy="50" r="46"></circle>
        <filter x="-7.6%" y="-5.4%" width="115.2%" height="115.2%" filterUnits="objectBoundingBox" id="filter-2">
            <feOffset dx="0" dy="2" in="SourceAlpha" result="shadowOffsetOuter1"></feOffset>
            <feGaussianBlur stdDeviation="2" in="shadowOffsetOuter1" result="shadowBlurOuter1"></feGaussianBlur>
            <feComposite in="shadowBlurOuter1" in2="SourceAlpha" operator="out" result="shadowBlurOuter1"></feComposite>
            <feColorMatrix values="0 0 0 0 0   0 0 0 0 0   0 0 0 0 0  0 0 0 0.2 0" type="matrix" in="shadowBlurOuter1"></feColorMatrix>
        </filter>
    </defs>
    <g id="Page-1" stroke="none" stroke-width="1" fill="none" fill-rule="evenodd">
        <g id="rhcBrand">
            <g id="Oval">
                <use fill="black" fill-opacity="1" filter="url(#filter-2)" xlink:href="#path-1"></use>
                <use fill="#FFFFFF" fill-rule="evenodd" xlink:href="#path-1"></use>
                <circle stroke="#235789" stroke-width="4" cx="50" cy="50" r="44"></circle>
            </g>
            <path d="M21.28,37.76 L29.5,37.76 C30.5800054,37.76 31.6049952,37.864999 32.575,38.075 C33.5450049,38.285001 34.3949963,38.6349976 35.125,39.125 C35.8550037,39.6150024 36.4349979,40.2749958 36.865,41.105 C37.2950022,41.9350041 37.51,42.9699938 37.51,44.21 C37.51,45.7100075 37.1200039,46.9849947 36.34,48.035 C35.5599961,49.0850053 34.4200075,49.7499986 32.92,50.03 L38.32,59 L32.71,59 L28.27,50.51 L25.96,50.51 L25.96,59 L21.28,59 L21.28,37.76 Z M25.96,46.55 L28.72,46.55 C29.1400021,46.55 29.5849977,46.5350002 30.055,46.505 C30.5250024,46.4749999 30.9499981,46.3850008 31.33,46.235 C31.7100019,46.0849992 32.0249988,45.8500016 32.275,45.53 C32.5250013,45.2099984 32.65,44.7600029 32.65,44.18 C32.65,43.6399973 32.5400011,43.2100016 32.32,42.89 C32.0999989,42.5699984 31.8200017,42.3250008 31.48,42.155 C31.1399983,41.9849992 30.7500022,41.8700003 30.31,41.81 C29.8699978,41.7499997 29.4400021,41.72 29.02,41.72 L25.96,41.72 L25.96,46.55 Z M40.72,37.76 L45.4,37.76 L45.4,45.68 L54.49,45.68 L54.49,37.76 L59.17,37.76 L59.17,59 L54.49,59 L54.49,49.82 L45.4,49.82 L45.4,59 L40.72,59 L40.72,37.76 Z M77.38,43.28 C76.9199977,42.7199972 76.3550033,42.2900015 75.685,41.99 C75.0149967,41.6899985 74.2400044,41.54 73.36,41.54 C72.4799956,41.54 71.6650037,41.7099983 70.915,42.05 C70.1649963,42.3900017 69.5150027,42.864997 68.965,43.475 C68.4149972,44.0850031 67.9850015,44.8099958 67.675,45.65 C67.3649985,46.4900042 67.21,47.3999951 67.21,48.38 C67.21,49.380005 67.3649985,50.2949958 67.675,51.125 C67.9850015,51.9550042 68.4099973,52.674997 68.95,53.285 C69.4900027,53.895003 70.1249964,54.3699983 70.855,54.71 C71.5850037,55.0500017 72.3699958,55.22 73.21,55.22 C74.1700048,55.22 75.0199963,55.020002 75.76,54.62 C76.5000037,54.219998 77.1099976,53.6600036 77.59,52.94 L81.49,55.85 C80.5899955,57.1100063 79.4500069,58.039997 78.07,58.64 C76.6899931,59.240003 75.2700073,59.54 73.81,59.54 C72.1499917,59.54 70.620007,59.2800026 69.22,58.76 C67.819993,58.2399974 66.6100051,57.4950049 65.59,56.525 C64.5699949,55.5549951 63.7750028,54.3800069 63.205,53 C62.6349972,51.6199931 62.35,50.0800085 62.35,48.38 C62.35,46.6799915 62.6349972,45.1400069 63.205,43.76 C63.7750028,42.3799931 64.5699949,41.2050049 65.59,40.235 C66.6100051,39.2649952 67.819993,38.5200026 69.22,38 C70.620007,37.4799974 72.1499917,37.22 73.81,37.22 C74.410003,37.22 75.0349967,37.2749995 75.685,37.385 C76.3350032,37.4950006 76.9749968,37.6699988 77.605,37.91 C78.2350031,38.1500012 78.8399971,38.469998 79.42,38.87 C80.0000029,39.270002 80.5199977,39.7599971 80.98,40.34 L77.38,43.28 Z" id="RHC" fill="#1D4C80"></path>
        </g>
    </g>
</svg>
